<?xml version="1.0" encoding="UTF-8"?>
<svg width="24px" height="24px" viewBox="0 0 24 24" version="1.1" xmlns="http://www.w3.org/2000/svg" xmlns:xlink="http://www.w3.org/1999/xlink">
    <!-- Generator: Sketch 63.1 (92452) - https://sketch.com -->
    <title>Shape</title>
    <desc>Created with Sketch.</desc>
    <g id="2.-Desktop" stroke="none" stroke-width="1" fill="none" fill-rule="evenodd">
        <g id="Desktop-HD-Copy-5" transform="translate(-1172.000000, -1684.000000)" fill="#2D2D2D" fill-rule="nonzero">
            <path d="M1196,1684 L1172,1684 L1172,1708 L1196,1708 L1196,1684 Z M1180,1702.66667 L1176.636,1702.66667 L1176.636,1693.33333 L1180,1693.33333 L1180,1702.66667 Z M1178.25867,1691.62267 C1177.23067,1691.62267 1176.544,1690.93733 1176.544,1690.02267 C1176.544,1689.108 1177.22933,1688.42267 1178.372,1688.42267 C1179.4,1688.42267 1180.08667,1689.108 1180.08667,1690.02267 C1180.08667,1690.93733 1179.40133,1691.62267 1178.25867,1691.62267 Z M1192,1702.66667 L1188.744,1702.66667 L1188.744,1697.56533 C1188.744,1696.15467 1187.876,1695.82933 1187.55067,1695.82933 C1187.22533,1695.82933 1186.14,1696.04667 1186.14,1697.56533 C1186.14,1697.78267 1186.14,1702.66667 1186.14,1702.66667 L1182.776,1702.66667 L1182.776,1693.33333 L1186.14,1693.33333 L1186.14,1694.636 C1186.57333,1693.876 1187.44133,1693.33333 1189.06933,1693.33333 C1190.69733,1693.33333 1192,1694.636 1192,1697.56533 L1192,1702.66667 Z" id="Shape"></path>
        </g>
    </g>
</svg>