<?xml version="1.0" encoding="UTF-8"?>
<svg width="24px" height="24px" viewBox="0 0 24 24" version="1.1" xmlns="http://www.w3.org/2000/svg" xmlns:xlink="http://www.w3.org/1999/xlink">
    <!-- Generator: Sketch 63.1 (92452) - https://sketch.com -->
    <title>Combined Shape</title>
    <desc>Created with Sketch.</desc>
    <g id="2.-Desktop" stroke="none" stroke-width="1" fill="none" fill-rule="evenodd">
        <g id="Desktop-HD-Copy-5" transform="translate(-1212.000000, -1684.000000)" fill="#2D2D2D" fill-rule="nonzero">
            <path d="M1236,1684 L1236,1708 L1212,1708 L1212,1684 L1236,1684 Z M1220.31933,1688.8 L1215.79664,1688.8 L1215.79664,1689.07937 L1217.25322,1690.94956 C1217.39621,1691.08693 1217.46924,1691.28866 1217.44986,1691.49277 L1217.44986,1691.49277 L1217.44986,1698.84162 C1217.49229,1699.10672 1217.41388,1699.37752 1217.23866,1699.57108 L1217.23866,1699.57108 L1215.6,1701.68959 L1215.6,1701.96896 L1220.2465,1701.96896 L1220.2465,1701.68959 L1218.60784,1699.57108 C1218.43133,1699.37785 1218.34807,1699.10883 1218.38207,1698.84162 L1218.38207,1698.84162 L1218.38207,1692.48607 L1222.4605,1701.96896 L1222.93389,1701.96896 L1226.43697,1692.48607 L1226.4364,1700.13293 C1226.43354,1700.26173 1226.41634,1700.307 1226.31317,1700.41693 L1226.31317,1700.41693 L1225.05322,1701.72063 L1225.05322,1702 L1231.17087,1702 L1231.17087,1701.72063 L1229.95462,1700.44797 C1229.84726,1700.36074 1229.794,1700.21738 1229.81625,1700.07549 L1229.81625,1700.07549 L1229.81625,1690.72451 C1229.794,1690.58262 1229.84726,1690.43926 1229.95462,1690.35203 L1229.95462,1690.35203 L1231.2,1689.07937 L1231.2,1688.8 L1226.88852,1688.8 L1223.81513,1696.97143 L1220.31933,1688.8 Z" id="Combined-Shape"></path>
        </g>
    </g>
</svg>